<svg xmlns="http://www.w3.org/2000/svg" viewBox="0 0 1440 320">
  <path fill="#0099ff" fill-opacity="1" d="M0,0L16,21.3C32,43,64,85,96,117.3C128,149,160,171,192,197.3C224,224,256,256,288,266.7C320,277,352,267,384,240C416,213,448,171,480,149.3C512,128,544,128,576,160C608,192,640,256,672,288C704,320,736,320,768,304C800,288,832,256,864,208C896,160,928,96,960,58.7C992,21,1024,11,1056,26.7C1088,43,1120,85,1152,117.3C1184,149,1216,171,1248,181.3C1280,192,1312,192,1344,160C1376,128,1408,64,1424,32L1440,0L1440,0L1424,0C1408,0,1376,0,1344,0C1312,0,1280,0,1248,0C1216,0,1184,0,1152,0C1120,0,1088,0,1056,0C1024,0,992,0,960,0C928,0,896,0,864,0C832,0,800,0,768,0C736,0,704,0,672,0C640,0,608,0,576,0C544,0,512,0,480,0C448,0,416,0,384,0C352,0,320,0,288,0C256,0,224,0,192,0C160,0,128,0,96,0C64,0,32,0,16,0L0,0Z"></path>
</svg>